<?xml version="1.0" standalone="no"?>
<!DOCTYPE svg PUBLIC "-//W3C//DTD SVG 20010904//EN"
 "http://www.w3.org/TR/2001/REC-SVG-20010904/DTD/svg10.dtd">
<svg version="1.0" xmlns="http://www.w3.org/2000/svg"
 width="720.000000pt" height="720.000000pt" viewBox="0 0 720.000000 720.000000"
 preserveAspectRatio="xMidYMid meet">

<g transform="translate(0.000000,720.000000) scale(0.100000,-0.100000)"
fill="#000000" stroke="none">
<path d="M4495 6223 c-62 -32 -261 -229 -376 -373 -189 -236 -386 -531 -507
-760 -200 -377 -340 -832 -383 -1240 -15 -143 -7 -408 16 -515 39 -188 115
-359 205 -466 22 -26 40 -53 40 -60 0 -7 -27 -108 -60 -225 -33 -117 -78 -286
-100 -375 -21 -89 -43 -165 -47 -170 -19 -18 -684 -299 -894 -377 -151 -56
-348 -116 -356 -108 -3 3 6 21 20 39 40 53 44 81 13 111 -32 33 -42 32 -126
-3 -199 -85 -350 -239 -338 -346 3 -24 15 -57 27 -74 58 -81 142 -85 401 -18
302 78 507 152 984 356 105 44 190 79 191 78 1 -1 -31 -159 -72 -352 -95 -459
-91 -428 -60 -459 30 -30 71 -34 104 -11 13 9 38 57 61 118 54 140 192 565
232 714 l33 122 151 67 c360 158 622 259 906 349 124 39 689 196 905 250 122
31 180 116 139 202 -11 21 -35 48 -54 61 -41 28 -71 28 -440 -7 -632 -59 -846
-55 -1069 22 -53 18 -127 53 -164 77 -59 39 -68 48 -64 70 2 14 52 198 110
410 58 212 151 554 207 760 239 880 373 1309 580 1860 20 53 32 106 33 140 4
136 -118 201 -248 133z m-232 -700 c-89 -250 -273 -888 -529 -1838 -53 -198
-106 -395 -118 -437 -11 -43 -24 -78 -28 -78 -3 0 -16 26 -28 58 -90 237 -85
596 14 990 109 433 274 783 564 1197 80 115 149 205 157 205 2 0 -12 -44 -32
-97z m-430 -2963 c102 -49 252 -95 354 -106 29 -4 55 -10 58 -14 2 -3 -58 -30
-135 -58 -76 -29 -214 -84 -307 -123 -92 -39 -175 -73 -184 -76 -14 -4 -6 35
42 204 32 114 59 211 59 216 0 12 6 9 113 -43z"/>
</g>
</svg>
